<?xml version="1.0"?>
<svg xmlns="http://www.w3.org/2000/svg" id="Layer_1" height="512px" viewBox="0 0 512 512" width="512px" data-name="Layer 1" class=""><g><path d="m371.937 34.281a5.964 5.964 0 0 0 -3.156-1.361 371.129 371.129 0 0 0 -112.781-17.59h-.173a371.239 371.239 0 0 0 -113.519 17.754l-.16.05v.017a5.953 5.953 0 0 0 -3.749 8.022l51.24 122.611a6 6 0 0 0 9.481 2.216l14.8-12.887 14.3 34.274-45.2 239.3 72.98 69.986 72.979-69.992-45.2-239.3 14.321-34.258 14.78 12.877a6 6 0 0 0 9.476-2.211l51.244-122.616a6 6 0 0 0 -1.663-6.892zm-116.115-6.951h.168a359.071 359.071 0 0 1 97.5 13.52l-97.49 60.566-97.6-60.637a359.237 359.237 0 0 1 97.422-13.449zm-58.312 124.155-40.8-97.628 89.226 55.435zm104.7 198.1-62.63 21.7a6 6 0 1 0 3.93 11.338l60.952-21.121 11.524 61.013-59.986 57.531-59.981-57.526 4.737-25.077 17.234-5.973a6 6 0 0 0 -3.929-11.339l-10.739 3.721 5.518-29.21 88.526-30.677zm-14.188-75.085-14.976 5.189a6 6 0 1 0 3.93 11.339l13.3-4.608 4.84 25.624-83.707 29.007 5.518-29.215 42.753-14.814a6 6 0 0 0 -3.93-11.339l-36.256 12.563 19.929-105.516h33.154zm-14.467-93.77h-35.107l-15-35.928 32.552-28.363 32.564 28.378zm40.935-29.246-48.427-42.192 89.226-55.433z" data-original="#000000" class="active-path" data-old_color="#000000" fill="#FFFFFF"/></g> </svg>
